<svg width="799" height="151" viewBox="0 0 799 151" fill="none" xmlns="http://www.w3.org/2000/svg">
<path d="M690.668 120.544C694.385 120.544 697.689 121.945 700.305 124.888C702.921 127.831 704.298 131.334 704.298 135.539C704.298 139.743 702.921 143.386 700.305 146.189C697.689 149.132 694.385 150.533 690.668 150.533C686.813 150.533 683.784 149.132 681.581 146.329V149.693H674.422V110.033H681.581V124.748C683.646 121.945 686.675 120.544 690.668 120.544ZM683.784 141.424C685.298 142.966 687.088 143.667 689.291 143.667C691.494 143.667 693.421 142.966 694.798 141.424C696.313 139.883 697.001 138.061 697.001 135.679C697.001 133.296 696.313 131.334 694.798 129.933C693.284 128.391 691.494 127.691 689.291 127.691C687.088 127.691 685.161 128.391 683.784 129.933C682.269 131.475 681.581 133.296 681.581 135.679C681.581 137.921 682.269 139.883 683.784 141.424Z" fill="url(#paint0_linear_266_182129)"/>
<path d="M716.719 126.301C717.408 124.48 718.509 123.078 720.024 122.237C721.538 121.256 723.328 120.836 725.256 120.836V129.104C723.053 128.824 721.125 129.244 719.335 130.506C717.545 131.627 716.719 133.589 716.719 136.391V149.985H709.422V121.396H716.582V126.301H716.719Z" fill="url(#paint1_linear_266_182129)"/>
<path d="M734.397 138.63C735.361 142.274 737.977 143.956 742.245 143.956C744.999 143.956 747.064 142.975 748.578 141.153L754.361 144.516C751.607 148.58 747.477 150.682 742.107 150.682C737.426 150.682 733.709 149.281 730.956 146.338C728.202 143.535 726.688 139.891 726.688 135.547C726.688 131.203 728.064 127.699 730.818 124.756C733.571 121.954 737.151 120.412 741.419 120.412C745.549 120.412 748.854 121.814 751.607 124.756C754.223 127.699 755.6 131.203 755.6 135.547C755.6 136.528 755.462 137.509 755.325 138.63H734.397V138.63ZM734.26 133.025H748.578C748.165 131.063 747.339 129.661 745.962 128.68C744.723 127.699 743.209 127.279 741.557 127.279C739.629 127.279 737.977 127.839 736.738 128.82C735.499 129.661 734.673 131.063 734.26 133.025Z" fill="url(#paint2_linear_266_182129)"/>
<path d="M791.286 121.375H798.996L790.046 149.823H783.162L778.068 132.586L772.974 149.823H766.09L757.141 121.375H764.851L769.67 138.892L774.764 121.375H781.648L786.742 138.892L791.286 121.375Z" fill="url(#paint3_linear_266_182129)"/>
<path d="M215.532 31.1123C225.17 31.1123 233.431 34.756 240.315 42.0432C247.199 49.3305 250.503 58.1592 250.503 68.8098C250.503 79.3203 247.061 88.1491 240.315 95.4363C233.431 102.724 225.17 106.367 215.532 106.367C204.793 106.367 196.67 102.303 190.887 94.1751V104.405H175.742V4.3457H190.887V43.1643C196.67 35.0362 204.793 31.1123 215.532 31.1123ZM197.221 85.066C201.489 89.4103 206.721 91.5124 213.054 91.5124C219.387 91.5124 224.757 89.4103 228.887 85.066C233.155 80.7217 235.221 75.2562 235.221 68.6697C235.221 62.0831 233.155 56.6177 228.887 52.2734C224.619 47.9291 219.387 45.827 213.054 45.827C206.721 45.827 201.351 47.9291 197.221 52.2734C192.952 56.6177 190.887 62.0831 190.887 68.6697C190.887 75.2562 193.09 80.7217 197.221 85.066Z" fill="black"/>
<path d="M264.188 104.404V0H279.333V104.404H264.188Z" fill="black"/>
<path d="M330.088 106.227C319.762 106.227 311.088 102.583 303.791 95.2961C296.631 88.0089 292.914 79.1801 292.914 68.5295C292.914 57.8789 296.494 49.0501 303.791 41.7629C310.95 34.4757 319.762 30.832 330.088 30.832C340.552 30.832 349.226 34.4757 356.385 41.7629C363.545 49.0501 367.124 57.8789 367.124 68.5295C367.124 79.1801 363.545 88.0089 356.385 95.2961C349.364 102.724 340.552 106.227 330.088 106.227ZM314.53 84.7857C318.798 89.13 323.892 91.2321 330.088 91.2321C336.284 91.2321 341.516 89.13 345.646 84.7857C349.914 80.4414 351.979 75.1161 351.979 68.6697C351.979 62.2232 349.914 56.7578 345.646 52.5536C341.378 48.2093 336.284 46.1072 330.088 46.1072C323.892 46.1072 318.661 48.2093 314.53 52.5536C310.262 56.898 308.197 62.2232 308.197 68.6697C308.197 75.1161 310.4 80.5815 314.53 84.7857Z" fill="black"/>
<path d="M414.169 106.214C403.568 106.214 394.756 102.57 387.734 95.283C380.713 87.9957 377.133 79.1669 377.133 68.5163C377.133 57.8657 380.713 48.8968 387.734 41.7497C394.756 34.6026 403.568 30.959 414.169 30.959C421.053 30.959 427.249 32.6407 432.894 36.004C438.539 39.3673 442.669 43.8518 445.561 49.4574L432.481 57.165C430.829 53.8017 428.488 50.9989 425.184 49.037C422.017 47.075 418.162 46.094 414.032 46.094C407.836 46.094 402.742 48.1961 398.473 52.5404C394.343 56.8848 392.278 62.2101 392.278 68.5163C392.278 74.9627 394.343 80.288 398.473 84.4922C402.604 88.8365 407.836 90.9386 414.032 90.9386C418.162 90.9386 421.879 89.9577 425.184 87.9957C428.488 86.0338 430.966 83.3711 432.756 80.0078L445.836 87.5753C442.807 93.321 438.539 97.8055 432.894 101.169C427.249 104.532 420.916 106.214 414.169 106.214Z" fill="black"/>
<path d="M518.883 104.405H500.71L471.934 71.3323V104.405H456.789V4.3457H471.934V64.6056L499.195 32.9341H517.782L486.941 67.969L518.883 104.405Z" fill="black"/>
<path d="M566.851 47.7912H549.365V82.1253C549.365 85.0683 550.054 87.1704 551.293 88.4316C552.67 89.6929 554.597 90.3936 557.076 90.5337C559.691 90.6738 562.858 90.6738 566.713 90.3936V104.267C555.148 105.669 546.749 104.688 541.655 101.184C536.561 97.6808 534.083 91.2344 534.083 81.9852V47.7912H521.141V32.9364H534.083V17.5211L549.228 12.8965V32.9364H566.713V47.7912H566.851Z" fill="black"/>
<path d="M589.716 75.2513C590.818 80.7168 593.434 84.9209 597.426 87.7237C601.419 90.6667 606.376 92.068 612.158 92.068C620.282 92.068 626.202 89.1251 630.332 83.2393L642.861 90.6667C635.977 101.037 625.651 106.222 612.158 106.222C600.731 106.222 591.506 102.719 584.484 95.5715C577.463 88.4244 573.883 79.4555 573.883 68.6648C573.883 58.0142 577.325 49.0453 584.347 41.8982C591.231 34.751 600.18 31.1074 611.057 31.1074C621.383 31.1074 629.782 34.751 636.39 42.1784C642.999 49.4657 646.303 58.4346 646.303 68.9451C646.303 70.6267 646.166 72.7288 645.753 75.3915H589.716V75.2513ZM589.579 62.6388H630.883C629.919 56.8931 627.441 52.4086 623.724 49.4657C620.006 46.5228 615.738 44.9812 610.781 44.9812C605.137 44.9812 600.455 46.5228 596.738 49.746C593.021 52.9692 590.68 57.1733 589.579 62.6388Z" fill="black"/>
<path d="M692.388 106.214C681.786 106.214 672.975 102.57 665.953 95.283C658.931 87.9957 655.352 79.1669 655.352 68.5163C655.352 57.8657 658.931 48.8968 665.953 41.7497C672.975 34.6026 681.786 30.959 692.388 30.959C699.272 30.959 705.468 32.6407 711.113 36.004C716.758 39.3673 720.888 43.8518 723.779 49.4574L710.7 57.165C709.047 53.8017 706.707 50.9989 703.402 49.037C700.236 47.075 696.381 46.094 692.25 46.094C686.055 46.094 680.96 48.1961 676.692 52.5404C672.562 56.8848 670.497 62.2101 670.497 68.5163C670.497 74.9627 672.562 80.288 676.692 84.4922C680.823 88.8365 686.055 90.9386 692.25 90.9386C696.381 90.9386 700.098 89.9577 703.402 87.9957C706.707 86.0338 709.185 83.3711 710.975 80.0078L724.055 87.5753C721.026 93.321 716.758 97.8055 711.113 101.169C705.468 104.532 699.272 106.214 692.388 106.214Z" fill="black"/>
<path d="M771.888 31.1123C779.873 31.1123 786.482 33.775 791.439 38.9601C796.395 44.1453 798.874 51.4325 798.874 60.5416V104.405H783.729V62.0831C783.729 56.7578 782.352 52.6938 779.46 49.7509C776.707 46.9481 772.852 45.4065 767.895 45.4065C762.526 45.4065 758.257 47.0882 754.953 50.4516C751.649 53.8149 749.997 59.0001 749.997 66.007V104.265H734.852V4.3457H749.997V42.0432C754.678 34.7559 761.975 31.1123 771.888 31.1123Z" fill="black"/>
<path fill-rule="evenodd" clip-rule="evenodd" d="M134.052 82.6886C129.331 91.5233 121.131 106.022 120.393 106.762C119.656 107.502 116.831 109.475 116.831 109.475C116.831 109.475 114.128 111.325 113.391 111.572C112.654 111.819 99.1398 111.572 99.1398 111.572L83.7532 111.572L78.9923 111.572L72.8498 111.572L66.5844 111.572L63.0978 111.572L45.577 111.572C45.577 111.572 32.3097 111.695 31.3269 111.449C30.3441 111.202 28.1328 109.475 28.1328 109.475C28.1328 109.475 24.7739 106.854 24.5701 106.639L23.4741 104.917C21.7382 101.715 15.221 89.7276 8.99194 78.2784C8.99194 78.2784 -2.0167e-06 58.3798 -2.01691e-06 57.1826C-2.01712e-06 55.9854 3.43981 49.6593 3.43981 49.6593C5.52827 45.096 10.9459 33.4067 16.3386 23.4721L24.1802 9.52967L26.29 7.84969L28.0099 6.64627L30.3441 5.01305C41.0807 5.01301 70.9775 5.01309 70.9775 5.01309C101.196 5.01309 113.432 4.26735 114.581 5.01305C115.73 5.75875 115.725 5.75304 115.725 5.75304L117.814 7.23302C117.814 7.23302 119.533 8.21968 121.008 9.69234C122.482 11.165 126.191 17.646 129.412 23.4626C146.569 54.4413 144.953 55.5072 144.964 57.0592C144.969 57.8611 141.207 69.2988 134.052 82.6886ZM121.205 43.9161C112.301 26.7741 109.847 22.5837 108.188 21.6961C107.362 21.2539 102.253 20.8918 96.8356 20.8918C87.8918 20.8918 86.8479 21.0427 85.5025 22.5297C84.1276 24.0493 84.0008 26.1398 83.7532 51.31C83.6071 66.2383 83.5079 81.9082 83.7532 83.2555C84.1889 85.6461 90.8394 93.7529 92.6007 94.9145C93.0876 95.2354 96.4165 95.5028 99.999 95.5102C106.42 95.5218 106.544 95.4847 108.599 92.9084C111.998 88.6472 127.227 59.1844 127.202 56.9183C127.192 56.0988 124.494 50.2477 121.205 43.9161ZM64.9601 25.1227C64.3487 23.7381 63.1297 22.2193 62.2495 21.7485C61.3232 21.2523 55.9647 20.8918 49.5258 20.8918L38.4021 20.8918L36.4804 23.4721C34.2032 26.5312 19.4208 54.661 18.7786 57.1583C18.4632 58.384 20.8972 63.7144 27.1359 75.4663C31.9776 84.5847 36.6666 92.8271 37.5574 93.7831C39.0338 95.3686 39.9467 95.5218 47.9149 95.5218C57.8278 95.5218 57.8347 95.5181 63.0978 87.3175C63.0978 87.3175 65.5221 84.1286 65.7047 83.2555C65.8873 82.3824 65.8873 55.4479 65.8873 55.4479C66.0349 33.0478 65.8536 27.1504 64.9601 25.1227Z" fill="url(#paint4_linear_266_182129)"/>
<defs>
<linearGradient id="paint0_linear_266_182129" x1="706.286" y1="82.8178" x2="681.425" y2="86.934" gradientUnits="userSpaceOnUse">
<stop stop-color="#A362F8"/>
<stop offset="1" stop-color="#7821EB"/>
</linearGradient>
<linearGradient id="paint1_linear_266_182129" x1="726.31" y1="101.248" x2="712.971" y2="102.875" gradientUnits="userSpaceOnUse">
<stop stop-color="#A362F8"/>
<stop offset="1" stop-color="#7821EB"/>
</linearGradient>
<linearGradient id="paint2_linear_266_182129" x1="757.524" y1="100.071" x2="733.891" y2="105.137" gradientUnits="userSpaceOnUse">
<stop stop-color="#A362F8"/>
<stop offset="1" stop-color="#7821EB"/>
</linearGradient>
<linearGradient id="paint3_linear_266_182129" x1="801.782" y1="102.258" x2="769.515" y2="112.913" gradientUnits="userSpaceOnUse">
<stop stop-color="#A362F8"/>
<stop offset="1" stop-color="#7821EB"/>
</linearGradient>
<linearGradient id="paint4_linear_266_182129" x1="242.437" y1="118.804" x2="227.69" y2="29.7648" gradientUnits="userSpaceOnUse">
<stop stop-color="#A362F8"/>
<stop offset="1" stop-color="#7821EB"/>
</linearGradient>
</defs>
</svg>
